<svg version="1.1" xmlns="http://www.w3.org/2000/svg" xmlns:xlink="http://www.w3.org/1999/xlink" width="22" height="22" viewBox="0,0,22,22">
	<desc>payment icon - Licensed under Apache License v2.0 (http://www.apache.org/licenses/LICENSE-2.0) - Created with Iconfu.com - Derivative work of Material icons (Copyright Google Inc.)</desc>
	<defs>
		<linearGradient x1="6.83" y1="6.83" x2="33.61" y2="33.61" id="color-4zOepuIE" gradientUnits="userSpaceOnUse">
			<stop offset="0" stop-color="#ffffff"/>
			<stop offset="0.48" stop-color="#000000"/>
		</linearGradient>
		<linearGradient x1="0" y1="0" x2="22" y2="22" gradientUnits="userSpaceOnUse" id="color-6ngWirIw">
			<stop offset="0" stop-color="#6f43cf"/>
			<stop offset="1" stop-color="#3c109c"/>
		</linearGradient>
		<linearGradient x1="0" y1="0" x2="22" y2="22" gradientUnits="userSpaceOnUse" id="color-gJTAV6k3">
			<stop offset="0" stop-color="#160076"/>
			<stop offset="1" stop-color="#00001d"/>
		</linearGradient>
		<mask id="mask-NlLky1FE">
			<rect fill="url(#color-4zOepuIE)" x="5.39" y="6.58" width="16.6" height="15.41"/>
		</mask>
	</defs>
	<g fill="none" fill-rule="nonzero" style="mix-blend-mode: normal">
		<path d="M17.11,21.71c-4.07,0.38 -8.16,0.38 -12.22,0c-2.44,-0.23 -4.37,-2.16 -4.6,-4.6c-0.38,-4.07 -0.38,-8.16 0,-12.22c0.23,-2.44 2.16,-4.37 4.6,-4.6c4.07,-0.38 8.16,-0.38 12.22,0c2.44,0.23 4.37,2.16 4.6,4.6c0.38,4.07 0.38,8.16 0,12.22c-0.23,2.44 -2.16,4.37 -4.6,4.6z" fill="url(#color-6ngWirIw)"/>
		<g fill="url(#color-gJTAV6k3)">
			<path d="M6.23,14.58v-3.57h2.38l-2.38,-2.38v-1.19h9.53l1.19,1.19v-1.19c0,-0.33 -0.13,-0.63 -0.35,-0.84l5.38,5.38c-0.03,1.72 -0.12,3.44 -0.28,5.15c-0.23,2.44 -2.16,4.37 -4.6,4.6c-1.71,0.16 -3.43,0.25 -5.15,0.28l-6.57,-6.57c0.22,0.22 0.51,0.35 0.84,0.35h1.19z" mask="url(#mask-NlLky1FE)"/>
		</g>
		<path d="M16.96,7.43v7.15c0,0.66 -0.53,1.19 -1.19,1.19h-9.53c-0.66,0 -1.19,-0.53 -1.19,-1.19l0.01,-7.15c0,-0.66 0.52,-1.19 1.19,-1.19h9.53c0.66,0 1.19,0.53 1.19,1.19zM15.77,11h-9.53v3.57h9.53zM15.77,7.43h-9.53v1.19h9.53z" fill="#ffffff"/>
	</g>
</svg>