<svg version="1.1" xmlns="http://www.w3.org/2000/svg" xmlns:xlink="http://www.w3.org/1999/xlink" width="22" height="22" viewBox="0,0,22,22">
	<desc>group icon - Licensed under Apache License v2.0 (http://www.apache.org/licenses/LICENSE-2.0) - Created with Iconfu.com - Derivative work of Material icons (Copyright Google Inc.)</desc>
	<defs>
		<linearGradient x1="0" y1="0" x2="22" y2="22" gradientUnits="userSpaceOnUse" id="color-peAyRh67">
			<stop offset="0" stop-color="#160076"/>
			<stop offset="1" stop-color="#00001d"/>
		</linearGradient>
		<linearGradient x1="0" y1="0" x2="22" y2="22" gradientUnits="userSpaceOnUse" id="color-YdSeYwKU">
			<stop offset="0" stop-color="#6f43cf"/>
			<stop offset="1" stop-color="#3c109c"/>
		</linearGradient>
		<linearGradient x1="7.75" y1="9.47" x2="33.1" y2="34.82" id="color-ZfLyT45i" gradientUnits="userSpaceOnUse">
			<stop offset="0" stop-color="#ffffff"/>
			<stop offset="0.48" stop-color="#000000"/>
		</linearGradient>
		<mask id="mask-cUCl1WG5">
			<rect fill="url(#color-ZfLyT45i)" x="4.45" y="7.35" width="17.45" height="14.65"/>
		</mask>
	</defs>
	<g fill="none" fill-rule="nonzero" style="mix-blend-mode: normal">
		<path d="M17.11,21.71c-4.07,0.38 -8.16,0.38 -12.22,0c-2.44,-0.23 -4.37,-2.16 -4.6,-4.6c-0.38,-4.07 -0.38,-8.16 0,-12.22c0.23,-2.44 2.16,-4.37 4.6,-4.6c4.07,-0.38 8.16,-0.38 12.22,0c2.44,0.23 4.37,2.16 4.6,4.6c0.38,4.07 0.38,8.16 0,12.22c-0.23,2.44 -2.16,4.37 -4.6,4.6z" fill="url(#color-YdSeYwKU)"/>
		<g fill="url(#color-peAyRh67)">
			<path d="M7.35,9.88c0.32,0.32 0.77,0.52 1.26,0.52c0.99,0 1.78,-0.8 1.78,-1.79c0,-0.5 -0.2,-0.94 -0.52,-1.27l2.97,2.97c0.17,0.05 0.35,0.08 0.53,0.08c0.99,0 1.78,-0.8 1.78,-1.79c0,-0.5 -0.2,-0.94 -0.52,-1.27l7.26,7.26c-0.05,0.84 -0.11,1.67 -0.19,2.5c-0.23,2.44 -2.16,4.37 -4.6,4.6c-1.94,0.18 -3.89,0.28 -5.84,0.28l-6.83,-6.83h8.2z" mask="url(#mask-cUCl1WG5)"/>
		</g>
		<path d="M12.79,13.68v1.49h-8.34v-1.49c0,-1.39 2.78,-2.09 4.17,-2.09c1.39,0 4.17,0.7 4.17,2.09zM17.55,13.68v1.49h-3.57v-1.49c0,-0.88 -0.48,-1.56 -1.17,-2.06c0.21,-0.02 0.41,-0.03 0.58,-0.03c1.39,0 4.17,0.7 4.17,2.09zM11.6,8.62c0,-0.99 0.8,-1.79 1.79,-1.79c0.99,0 1.78,0.8 1.78,1.79c0,0.99 -0.79,1.79 -1.78,1.79c-0.99,0 -1.79,-0.8 -1.79,-1.79zM6.83,8.62c0,-0.99 0.8,-1.79 1.79,-1.79c0.99,0 1.78,0.8 1.78,1.79c0,0.99 -0.79,1.79 -1.78,1.79c-0.99,0 -1.79,-0.8 -1.79,-1.79z" fill="#ffffff"/>
	</g>
</svg>