<svg version="1.1" xmlns="http://www.w3.org/2000/svg" xmlns:xlink="http://www.w3.org/1999/xlink" width="22" height="22" viewBox="0,0,22,22">
	<desc>dashboard icon - Licensed under Apache License v2.0 (http://www.apache.org/licenses/LICENSE-2.0) - Created with Iconfu.com - Derivative work of Material icons (Copyright Google Inc.)</desc>
	<defs>
		<linearGradient x1="0" y1="0" x2="22" y2="22" gradientUnits="userSpaceOnUse" id="color-iBIylhPS">
			<stop offset="0" stop-color="#6f43cf"/>
			<stop offset="1" stop-color="#3c109c"/>
		</linearGradient>
		<linearGradient x1="0" y1="0" x2="22" y2="22" gradientUnits="userSpaceOnUse" id="color-uVB6Xd7Z">
			<stop offset="0" stop-color="#160076"/>
			<stop offset="1" stop-color="#00001d"/>
		</linearGradient>
		<linearGradient x1="8.02" y1="8.02" x2="33.96" y2="33.96" id="color-W0w0zyV4" gradientUnits="userSpaceOnUse">
			<stop offset="0" stop-color="#ffffff"/>
			<stop offset="0.48" stop-color="#000000"/>
		</linearGradient>
		<mask id="mask-weLGy2Yq">
			<rect fill="url(#color-W0w0zyV4)" x="5.64" y="5.64" width="16.36" height="16.36"/>
		</mask>
	</defs>
	<g fill="none" fill-rule="nonzero" style="mix-blend-mode: normal">
		<path d="M17.11,21.71c-4.07,0.38 -8.16,0.38 -12.22,0c-2.44,-0.23 -4.37,-2.16 -4.6,-4.6c-0.38,-4.07 -0.38,-8.16 0,-12.22c0.23,-2.44 2.16,-4.37 4.6,-4.6c4.07,-0.38 8.16,-0.38 12.22,0c2.44,0.23 4.37,2.16 4.6,4.6c0.38,4.07 0.38,8.16 0,12.22c-0.23,2.44 -2.16,4.37 -4.6,4.6z" fill="url(#color-iBIylhPS)"/>
		<g fill="url(#color-uVB6Xd7Z)">
			<path d="M5.64,16.36h4.77l-4.77,-4.77h4.77v-5.96l3.57,3.58h2.38v-3.58l5.64,5.64c-0.01,1.95 -0.1,3.9 -0.28,5.84c-0.23,2.44 -2.16,4.37 -4.6,4.6c-1.94,0.18 -3.89,0.28 -5.84,0.28z" mask="url(#mask-weLGy2Yq)"/>
		</g>
		<path d="M11.6,10.4h4.77v5.96h-4.77zM5.64,5.64h4.77v5.96h-4.77zM16.36,5.64v3.58h-4.77v-3.58zM5.64,12.79h4.77v3.57h-4.77z" fill="#ffffff"/>
	</g>
</svg>