<svg version="1.1" xmlns="http://www.w3.org/2000/svg" xmlns:xlink="http://www.w3.org/1999/xlink" width="22" height="22" viewBox="0,0,22,22">
	<desc>receipt icon - Licensed under Apache License v2.0 (http://www.apache.org/licenses/LICENSE-2.0) - Created with Iconfu.com - Derivative work of Material icons (Copyright Google Inc.)</desc>
	<defs>
		<linearGradient x1="7.72" y1="7.72" x2="34.26" y2="34.26" id="color-6HGLfQ2o" gradientUnits="userSpaceOnUse">
			<stop offset="0" stop-color="#ffffff"/>
			<stop offset="0.48" stop-color="#000000"/>
		</linearGradient>
		<linearGradient x1="0" y1="0" x2="22" y2="22" gradientUnits="userSpaceOnUse" id="color-EJPIBOKI">
			<stop offset="0" stop-color="#160076"/>
			<stop offset="1" stop-color="#00001d"/>
		</linearGradient>
		<linearGradient x1="0" y1="0" x2="22" y2="22" gradientUnits="userSpaceOnUse" id="color-gmPIwytM">
			<stop offset="0" stop-color="#6f43cf"/>
			<stop offset="1" stop-color="#3c109c"/>
		</linearGradient>
		<mask id="mask-WzH566q1">
			<rect fill="url(#color-6HGLfQ2o)" x="5.64" y="5.04" width="16.36" height="16.96"/>
		</mask>
	</defs>
	<g fill="none" fill-rule="nonzero" style="mix-blend-mode: normal">
		<path d="M17.11,21.71c-4.07,0.38 -8.16,0.38 -12.22,0c-2.44,-0.23 -4.37,-2.16 -4.6,-4.6c-0.38,-4.07 -0.38,-8.16 0,-12.22c0.23,-2.44 2.16,-4.37 4.6,-4.6c4.07,-0.38 8.16,-0.38 12.22,0c2.44,0.23 4.37,2.16 4.6,4.6c0.38,4.07 0.38,8.16 0,12.22c-0.23,2.44 -2.16,4.37 -4.6,4.6z" fill="url(#color-gmPIwytM)"/>
		<g fill="url(#color-EJPIBOKI)">
			<path d="M7.43,13.98v-1.19h1.19l-1.19,-1.19v-1.19h1.19l-1.19,-1.19v-1.19h7.15l1.79,1.79v-4.77l5.64,5.64c0.01,2.15 -0.08,4.29 -0.28,6.43c-0.23,2.44 -2.16,4.37 -4.6,4.6c-2.14,0.2 -4.29,0.3 -6.43,0.28l-5.04,-5.04l0.89,-0.89l0.89,0.89l0.89,-0.89l0.89,0.89l0.6,-0.6z" mask="url(#mask-WzH566q1)"/>
		</g>
		<path d="M5.64,5.04l0.89,0.89l0.89,-0.89l0.89,0.89l0.89,-0.89l0.89,0.89l0.89,-0.89l0.89,0.89l0.89,-0.89l0.89,0.89l0.89,-0.89l0.89,0.89l0.89,-0.89v11.92l-0.89,-0.89l-0.89,0.89l-0.89,-0.89l-0.89,0.89l-0.89,-0.89l-0.89,0.89l-0.89,-0.89l-0.89,0.89l-0.89,-0.89l-0.89,0.89l-0.89,-0.89l-0.89,0.89zM14.58,8.02h-7.15v1.19h7.15zM14.58,10.4h-7.15v1.19h7.15zM14.58,12.79h-7.15v1.19h7.15z" fill="#ffffff"/>
	</g>
</svg>