<svg version="1.1" xmlns="http://www.w3.org/2000/svg" xmlns:xlink="http://www.w3.org/1999/xlink" width="22" height="22" viewBox="0,0,22,22">
	<desc>settings icon - Licensed under Apache License v2.0 (http://www.apache.org/licenses/LICENSE-2.0) - Created with Iconfu.com - Derivative work of Material icons (Copyright Google Inc.)</desc>
	<defs>
		<linearGradient x1="0" y1="0" x2="22" y2="22" gradientUnits="userSpaceOnUse" id="color-BF6HScoW">
			<stop offset="0" stop-color="#6f43cf"/>
			<stop offset="1" stop-color="#3c109c"/>
		</linearGradient>
		<linearGradient x1="7.35" y1="7.35" x2="32.9" y2="32.9" id="color-D1GSYu5H" gradientUnits="userSpaceOnUse">
			<stop offset="0" stop-color="#ffffff"/>
			<stop offset="0.48" stop-color="#000000"/>
		</linearGradient>
		<linearGradient x1="0" y1="0" x2="22" y2="22" gradientUnits="userSpaceOnUse" id="color-omc7rqM2">
			<stop offset="0" stop-color="#160076"/>
			<stop offset="1" stop-color="#00001d"/>
		</linearGradient>
		<mask id="mask-8Y2EErUj">
			<rect fill="url(#color-D1GSYu5H)" x="5.29" y="5.13" width="16.67" height="16.83"/>
		</mask>
	</defs>
	<g fill="none" fill-rule="nonzero" style="mix-blend-mode: normal">
		<path d="M17.11,21.71c-4.07,0.38 -8.16,0.38 -12.22,0c-2.44,-0.23 -4.37,-2.16 -4.6,-4.6c-0.38,-4.07 -0.38,-8.16 0,-12.22c0.23,-2.44 2.16,-4.37 4.6,-4.6c4.07,-0.38 8.16,-0.38 12.22,0c2.44,0.23 4.37,2.16 4.6,4.6c0.38,4.07 0.38,8.16 0,12.22c-0.23,2.44 -2.16,4.37 -4.6,4.6z" fill="url(#color-BF6HScoW)"/>
		<g fill="url(#color-omc7rqM2)">
			<path d="M9.53,12.47c-0.38,-0.38 -0.61,-0.9 -0.61,-1.47c0,-1.15 0.94,-2.09 2.09,-2.09c0.58,0 1.1,0.23 1.47,0.61l3.97,3.97l0.31,-0.54c0,-0.01 0.01,-0.02 0.01,-0.02l-1.34,-1.34c0.02,-0.19 0.04,-0.38 0.04,-0.58c0,-0.2 -0.02,-0.39 -0.04,-0.58l0.46,-0.36l-3.18,-3.18l-0.23,-1.58c-0.01,-0.06 -0.04,-0.12 -0.08,-0.16l4.29,4.29c0.1,-0.09 0.13,-0.24 0.06,-0.37l-1.19,-2.06c-0.01,-0.02 -0.03,-0.05 -0.05,-0.06l6.44,6.44c-0.05,1.25 -0.13,2.5 -0.24,3.74c-0.23,2.44 -2.16,4.37 -4.6,4.6c-1.25,0.12 -2.49,0.2 -3.74,0.24l-6.88,-6.88c0.08,0.08 0.21,0.11 0.32,0.07l1.48,-0.6c0.31,0.24 0.64,0.43 1.01,0.58l1.83,1.83h1.07c0.15,0 0.27,-0.11 0.29,-0.25l0.01,-0.09l-7.21,-7.21c0.01,0.01 0.02,0.02 0.03,0.02l1.26,0.98l5.96,5.96l0.11,-0.78z" mask="url(#mask-8Y2EErUj)"/>
		</g>
		<path d="M16.68,12.57c0.11,0.09 0.14,0.25 0.07,0.38l-1.19,2.06c-0.07,0.13 -0.23,0.18 -0.36,0.13l-1.48,-0.6c-0.31,0.23 -0.64,0.43 -1.01,0.58l-0.23,1.58c-0.02,0.14 -0.14,0.25 -0.29,0.25h-2.38c-0.15,0 -0.27,-0.11 -0.29,-0.25l-0.23,-1.58c-0.36,-0.15 -0.7,-0.35 -1.01,-0.58l-1.48,0.6c-0.13,0.05 -0.29,0 -0.36,-0.13l-1.19,-2.06c-0.07,-0.13 -0.04,-0.29 0.07,-0.38l1.26,-0.98c-0.02,-0.19 -0.04,-0.39 -0.04,-0.58c0,-0.2 0.02,-0.39 0.04,-0.58l-1.26,-0.98c-0.11,-0.09 -0.15,-0.25 -0.07,-0.38l1.19,-2.06c0.07,-0.13 0.23,-0.18 0.36,-0.13l1.48,0.6c0.31,-0.23 0.64,-0.43 1.01,-0.58l0.23,-1.58c0.02,-0.14 0.14,-0.25 0.29,-0.25h2.38c0.15,0 0.27,0.11 0.29,0.25l0.23,1.58c0.36,0.15 0.7,0.35 1.01,0.58l1.48,-0.6c0.13,-0.05 0.29,0 0.36,0.13l1.19,2.06c0.07,0.13 0.04,0.29 -0.07,0.38l-1.26,0.98c0.02,0.19 0.04,0.38 0.04,0.58c0,0.2 -0.02,0.39 -0.04,0.58zM13.09,11c0,-1.15 -0.94,-2.09 -2.09,-2.09c-1.15,0 -2.09,0.94 -2.09,2.09c0,1.15 0.94,2.09 2.09,2.09c1.15,0 2.09,-0.94 2.09,-2.09z" fill="#ffffff"/>
	</g>
</svg>