<svg version="1.1" xmlns="http://www.w3.org/2000/svg" xmlns:xlink="http://www.w3.org/1999/xlink" width="22" height="22" viewBox="0,0,22,22">
	<desc>account_balance_wallet icon - Licensed under Apache License v2.0 (http://www.apache.org/licenses/LICENSE-2.0) - Created with Iconfu.com - Derivative work of Material icons (Copyright Google Inc.)</desc>
	<defs>
		<linearGradient x1="0" y1="0" x2="22" y2="22" gradientUnits="userSpaceOnUse" id="color-3w8iVRRj">
			<stop offset="0" stop-color="#160076"/>
			<stop offset="1" stop-color="#00001d"/>
		</linearGradient>
		<linearGradient x1="8.97" y1="8.97" x2="33.61" y2="33.61" id="color-5GmjDF4K" gradientUnits="userSpaceOnUse">
			<stop offset="0" stop-color="#ffffff"/>
			<stop offset="0.48" stop-color="#000000"/>
		</linearGradient>
		<linearGradient x1="0" y1="0" x2="22" y2="22" gradientUnits="userSpaceOnUse" id="color-vqk5MfRu">
			<stop offset="0" stop-color="#6f43cf"/>
			<stop offset="1" stop-color="#3c109c"/>
		</linearGradient>
		<mask id="mask-2xeEtn1u">
			<rect fill="url(#color-5GmjDF4K)" x="5.99" y="5.99" width="16.01" height="16.01"/>
		</mask>
	</defs>
	<g fill="none" fill-rule="nonzero" style="mix-blend-mode: normal">
		<path d="M17.11,21.71c-4.07,0.38 -8.16,0.38 -12.22,0c-2.44,-0.23 -4.37,-2.16 -4.6,-4.6c-0.38,-4.07 -0.38,-8.16 0,-12.22c0.23,-2.44 2.16,-4.37 4.6,-4.6c4.07,-0.38 8.16,-0.38 12.22,0c2.44,0.23 4.37,2.16 4.6,4.6c0.38,4.07 0.38,8.16 0,12.22c-0.23,2.44 -2.16,4.37 -4.6,4.6z" fill="url(#color-vqk5MfRu)"/>
		<g fill="url(#color-3w8iVRRj)">
			<path d="M5.99,16.01c0.22,0.22 0.51,0.35 0.84,0.35h5.46l-2.14,-2.14c-0.22,-0.22 -0.35,-0.51 -0.35,-0.84v-4.77c0,-0.66 0.53,-1.19 1.19,-1.19h5.36v-0.6c0,-0.33 -0.13,-0.63 -0.35,-0.84l5.98,5.98c-0.03,1.72 -0.12,3.43 -0.28,5.14c-0.23,2.44 -2.16,4.37 -4.6,4.6c-1.71,0.16 -3.43,0.25 -5.15,0.28z" mask="url(#mask-2xeEtn1u)"/>
		</g>
		<path d="M16.36,14.58v0.6c0,0.66 -0.54,1.19 -1.19,1.19h-8.34c-0.66,0 -1.19,-0.54 -1.19,-1.19v-8.34c0,-0.66 0.53,-1.19 1.19,-1.19h8.34c0.66,0 1.19,0.54 1.19,1.19v0.6h-5.36c-0.66,0 -1.19,0.54 -1.19,1.19v4.77c0,0.66 0.53,1.19 1.19,1.19zM11,8.62h5.96v4.77h-5.96zM14.28,11c0,-0.49 -0.4,-0.89 -0.89,-0.89c-0.49,0 -0.89,0.4 -0.89,0.89c0,0.49 0.4,0.89 0.89,0.89c0.49,0 0.89,-0.4 0.89,-0.89z" fill="#ffffff"/>
	</g>
</svg>